# xmcd
#
# Track frame offsets:
#	150
#	14981
#	31705
#	46177
#	63175
#	80419
#	97679
#	115285
#	127153
#	141068
#	154423
#	167746
#	183750
#	197119
#	212756
#	228760
#	250452
#
# Disc length: 3586 seconds
#
# Revision: 1
# Processed by: cddbd v1.5.2PL0 Copyright (c) Steve Scherf et al.
# Submitted via: audiograbber 1.83.01
#
DISCID=e30e0011
DTITLE=Truck Stop - Meilensteine (Raritäten and Duette) [2CD] (2017) [CD 1)
DYEAR=2017
DGENRE=Deutsch Country
TTITLE0=On The Road
TTITLE1=Alabama Moon
TTITLE2=Mississippi Lady
TTITLE3=Der Kaffee muss schwarz sein
TTITLE4=Deine Sorgen möchte' ich haben
TTITLE5=Grand Canyon
TTITLE6=Wenn es Nacht wird in Old Tucson
TTITLE7=Schöne Grüße
TTITLE8=Wilde Pferde, wilde Wölfe, wildes Land
TTITLE9=Morgens in Montana
TTITLE10=Wo ist das Feuer
TTITLE11=California
TTITLE12=Gelbe Säcke, blauer Engel, grüner Punkt
TTITLE13=Wenn ein Stern vom Himmel fällt
TTITLE14=Darf mein Hund mit in den Himmel
TTITLE15=Fluss im Abendwind
TTITLE16=Route 66
EXTD=Release-Date: 07.04.2017\n\nMARO\n
EXTT0=
EXTT1=
EXTT2=
EXTT3=
EXTT4=
EXTT5=
EXTT6=
EXTT7=
EXTT8=
EXTT9=
EXTT10=
EXTT11=
EXTT12=
EXTT13=
EXTT14=
EXTT15=
EXTT16=
PLAYORDER=
